<?xml version="1.0" encoding="UTF-8" standalone="no"?>
<!-- Created with Inkscape (http://www.inkscape.org/) -->

<svg
   width="1.3633587in"
   height="1.3633592in"
   viewBox="0 0 34.629312 34.629324"
   version="1.1"
   id="svg1"
   xmlns="http://www.w3.org/2000/svg"
   xmlns:svg="http://www.w3.org/2000/svg">
  <defs
     id="defs1" />
  <g
     id="layer1"
     transform="translate(-102.07389,-90.635338)">
    <path
       id="path43"
       style="fill:#000000;fill-opacity:1;stroke:#040404;stroke-width:0.00904057;stroke-dasharray:none;stroke-opacity:1"
       d="m 122.07696,97.193797 a 5.7048837,7.8032534 45 0 0 -2.68766,4.934843 4.7744586,7.3665601 45 0 1 2.16964,-3.100817 4.7744586,7.3665601 45 0 1 8.58501,-1.833024 4.7744586,7.3665601 45 0 1 -1.83302,8.585011 4.7744586,7.3665601 45 0 1 -3.10082,2.16963 5.7048837,7.8032534 45 0 0 4.93483,-2.68766 5.7048837,7.8032534 45 0 0 1.48367,-9.551652 5.7048837,7.8032534 45 0 0 -9.55165,1.483669 z m -13.4449,8.067483 a 7.8032534,5.7048837 45 0 0 4.93482,2.68765 7.3665601,4.7744586 45 0 1 -3.10082,-2.16963 7.3665601,4.7744586 45 0 1 -1.83302,-8.584996 7.3665601,4.7744586 45 0 1 8.58503,1.833009 7.3665601,4.7744586 45 0 1 2.16963,3.100807 7.8032534,5.7048837 45 0 0 -2.68767,-4.934819 7.8032534,5.7048837 45 0 0 -9.55165,-1.483669 7.8032534,5.7048837 45 0 0 1.48368,9.551648 z m 8.06747,13.44491 a 5.7048837,7.8032534 45 0 0 2.68767,-4.93483 4.7744586,7.3665601 45 0 1 -2.16964,3.10081 4.7744586,7.3665601 45 0 1 -8.58501,1.83302 4.7744586,7.3665601 45 0 1 1.83302,-8.58501 4.7744586,7.3665601 45 0 1 3.10082,-2.16962 5.7048837,7.8032534 45 0 0 -4.93485,2.68765 5.7048837,7.8032534 45 0 0 -1.48365,9.55165 5.7048837,7.8032534 45 0 0 9.55164,-1.48367 z m 13.44491,-8.06747 a 7.8032534,5.7048837 45 0 0 -4.93483,-2.68767 7.3665601,4.7744586 45 0 1 3.10082,2.16963 7.3665601,4.7744586 45 0 1 1.833,8.58501 7.3665601,4.7744586 45 0 1 -8.585,-1.83301 7.3665601,4.7744586 45 0 1 -2.16963,-3.10081 7.8032534,5.7048837 45 0 0 2.68767,4.93482 7.8032534,5.7048837 45 0 0 9.55165,1.48368 7.8032534,5.7048837 45 0 0 -1.48368,-9.55165 z M 113.68397,98.443002 a 5.7048837,7.8032534 0 0 0 1.58899,5.389928 4.7744586,7.3665601 0 0 1 -0.65844,-3.72677 4.7744586,7.3665601 0 0 1 4.77437,-7.366659 4.7744586,7.3665601 0 0 1 4.77439,7.366659 4.7744586,7.3665601 0 0 1 -0.65844,3.72677 5.7048837,7.8032534 0 0 0 1.58897,-5.389928 5.7048837,7.8032534 0 0 0 -5.70492,-7.803144 5.7048837,7.8032534 0 0 0 -5.70492,7.803144 z m -3.80242,15.211558 a 7.8032534,5.7048837 0 0 0 5.38991,-1.58898 7.3665601,4.7744586 0 0 1 -3.72676,0.65844 7.3665601,4.7744586 0 0 1 -7.36666,-4.77437 7.3665601,4.7744586 0 0 1 7.36666,-4.77438 7.3665601,4.7744586 0 0 1 3.72676,0.65844 7.8032534,5.7048837 0 0 0 -5.38991,-1.58899 7.8032534,5.7048837 0 0 0 -7.80314,5.70493 7.8032534,5.7048837 0 0 0 7.80314,5.70491 z m 15.21157,3.80243 a 5.7048837,7.8032534 0 0 0 -1.589,-5.38992 4.7744586,7.3665601 0 0 1 0.65845,3.72678 4.7744586,7.3665601 0 0 1 -4.77439,7.36665 4.7744586,7.3665601 0 0 1 -4.77437,-7.36665 4.7744586,7.3665601 0 0 1 0.65844,-3.72678 5.7048837,7.8032534 0 0 0 -1.58899,5.38992 5.7048837,7.8032534 0 0 0 5.70492,7.80315 5.7048837,7.8032534 0 0 0 5.70494,-7.80315 z m 3.80241,-15.21156 a 7.8032534,5.7048837 0 0 0 -5.38992,1.58899 7.3665601,4.7744586 0 0 1 3.72677,-0.65845 7.3665601,4.7744586 0 0 1 7.36666,4.77439 7.3665601,4.7744586 0 0 1 -7.36666,4.77437 7.3665601,4.7744586 0 0 1 -3.72677,-0.65844 7.8032534,5.7048837 0 0 0 5.38992,1.58899 7.8032534,5.7048837 0 0 0 7.80315,-5.70492 7.8032534,5.7048837 0 0 0 -7.80315,-5.70493 z" />
  </g>
</svg>
